<svg width="61" height="39" viewBox="0 0 61 39" fill="none" xmlns="http://www.w3.org/2000/svg">
<path d="M53.1472 14.6987C55.3686 15.4392 57.1457 16.772 58.4785 18.6972C59.8114 20.4744 60.4778 22.4736 60.4778 24.695C60.6259 26.9164 60.0335 29.1378 58.7007 31.3592C57.5159 33.4325 55.5907 35.2096 52.925 36.6906C48.6303 38.912 44.8539 39.5043 41.5959 38.4677C38.3378 37.2829 36.0424 35.5058 34.7095 33.1363C33.9691 31.9516 33.3767 30.3226 32.9324 28.2493C32.6362 26.1759 32.4882 24.0286 32.4882 21.8072C32.6362 19.4377 32.9324 17.1423 33.3767 14.9209C33.821 12.6995 34.4874 10.8483 35.376 9.36735C36.1164 8.3307 37.005 7.22 38.0416 6.03525C38.9302 4.9986 39.9669 3.96195 41.1516 2.9253C42.4845 1.88864 43.9654 0.926035 45.5944 0.0374756L53.3693 0.481756C52.3327 1.6665 51.37 2.7772 50.4815 3.81385C49.741 4.70241 49.0746 5.51693 48.4822 6.25739C47.8899 6.99786 47.2975 7.66428 46.7051 8.25665C45.6685 9.29331 44.8539 10.33 44.2616 11.3666C43.6692 12.2552 43.1509 13.2178 42.7066 14.2544C42.4104 15.2911 42.4104 16.3277 42.7066 17.3644C44.6318 15.2911 46.8532 14.2544 49.3708 14.2544C50.5555 14.2544 51.8143 14.4025 53.1472 14.6987ZM22.4919 15.8094C24.5652 16.9942 26.0461 18.6232 26.9347 20.6965C27.9713 22.6217 28.3415 24.695 28.0454 26.9164C27.7492 29.1378 26.7866 31.2111 25.1575 33.1363C23.6766 35.0615 21.4552 36.5425 18.4933 37.5791C13.9024 39.0601 10.1261 38.986 7.1642 37.357C4.20233 35.5799 2.20307 33.4325 1.16642 30.9149C0.72214 29.5821 0.5 27.879 0.5 25.8057C0.5 23.7324 0.72214 21.5851 1.16642 19.3637C1.6107 17.1423 2.20307 14.9949 2.94354 12.9216C3.68401 10.8483 4.64661 9.14521 5.83136 7.81237C6.71992 6.77572 7.75657 5.81311 8.94132 4.92455C9.97797 4.18409 11.1627 3.36958 12.4956 2.48102C13.9765 1.59246 15.6055 0.777942 17.3826 0.0374756L25.1575 2.03674C23.9728 3.07339 22.8621 3.96195 21.8254 4.70241C20.9369 5.44288 20.1224 6.1093 19.3819 6.70167C18.6414 7.29405 17.901 7.88642 17.1605 8.47879C16.1238 9.36735 15.2353 10.2559 14.4948 11.1445C13.7544 11.8849 13.0879 12.7735 12.4956 13.8102C11.9032 14.6987 11.681 15.6613 11.8291 16.698C13.0139 15.8094 14.1986 15.2911 15.3834 15.143C16.7162 14.8468 17.901 14.7728 18.9376 14.9209C20.1224 15.0689 21.3071 15.3651 22.4919 15.8094Z" fill="#D5DBE4"/>
</svg>
